<svg width="211" height="40" viewBox="0 0 211 40" fill="none" xmlns="http://www.w3.org/2000/svg">
<path fill-rule="evenodd" clip-rule="evenodd" d="M40.0035 19.9829C40.0016 19.6931 39.9933 19.4021 39.9792 19.1096C39.9245 17.8181 39.745 16.5348 39.4432 15.2779C37.3208 6.51227 29.4229 0 20.0013 0C8.95386 0 0 8.95547 0 19.9987V20.0408C0.00212977 20.3312 0.0102204 20.6214 0.0242667 20.9115C0.0418516 21.3416 0.0736913 21.771 0.119733 22.1989C1.20107 32.0811 9.47973 39.7984 19.6019 39.9968C20.0356 40.0044 20.4695 39.9985 20.9029 39.9789C22.3505 39.9141 23.7868 39.6937 25.1872 39.3216C33.7213 37.0373 40.0035 29.2517 40.0035 19.9987V19.9829ZM28.2677 8.82373C28.5229 9.36133 29.3883 9.63893 30.5587 9.9624C32.6099 10.5291 32.652 12.4299 31.58 13.7427C30.2715 15.3453 28.9627 14.7477 27.9571 12.4944C27.3285 11.0883 26.5016 10.7496 25.9197 11.1171C25.2827 11.5184 25.5344 12.4832 26.2472 13.5931C26.7131 14.3176 26.5043 15.1733 26.0208 15.6792C25.512 16.2075 24.6784 16.4195 23.7739 16.2187C22.1592 15.8643 20.5747 13.7053 21.7317 8.98827C22.1508 7.28334 21.4608 6.45305 20.8956 5.77285C20.8299 5.69385 20.7659 5.61688 20.7056 5.5408C20.4165 5.1752 20.3829 4.95467 20.4877 4.80507C20.6008 4.64693 20.8712 4.63387 21.3456 4.73387C21.5968 4.78617 21.8974 4.86965 22.2161 4.95815C22.6838 5.08805 23.1905 5.22876 23.6373 5.2976C24.1349 5.37627 24.6963 5.39787 25.2912 5.37333C26.8981 5.3136 28.0843 5.56053 29.2965 6.16267C31.3573 7.1808 31.5669 8.93493 30.42 8.79653C30.1088 8.75816 29.7231 8.56176 29.3682 8.38104C29.2742 8.33319 29.1824 8.28643 29.0947 8.244C28.8112 8.1056 28.568 8.0616 28.3875 8.19333C28.2208 8.31307 28.1469 8.56933 28.2677 8.82373ZM21.3116 19.0236C22.8009 19.8675 24.612 20.8938 26.9168 22.2747C32.6475 25.7107 31.9944 29.8987 30.684 32.0341C29.9392 33.2469 28.3763 34.5549 26.4837 35.4264C26.1965 35.5555 25.8888 35.5152 25.8131 35.2816C25.7459 35.0795 25.9067 34.8477 26.0939 34.6243C28.5595 31.4256 26.7269 28.4933 22.7459 26.2176C21.379 25.435 20.2428 24.8071 19.2003 24.231C18.0004 23.5679 16.9245 22.9733 15.7637 22.2904C9.40373 18.5459 8.17573 15.2853 7.92587 13.3547C7.3 8.48053 11.3299 4.82933 15.4765 3.94933C15.6011 3.9224 15.9331 3.86907 16.0408 4.14587C16.1475 4.41973 15.9021 4.61973 15.7592 4.70667C13.9051 5.72773 12.0837 7.89413 12.2821 10.3008C12.3933 11.6453 12.9688 13.5781 16.6067 16.1717C17.8693 17.0731 19.2956 17.8812 21.3116 19.0236ZM18.7533 34.6224C19.3616 34.8877 20.0912 35.1141 20.572 35.2525C21.3259 35.4693 21.1763 36.2267 20.4203 36.3333C18.0267 36.6699 14.1296 36.064 11.4925 34.3952C9.18133 32.9347 7.80133 31.1096 6.91173 29.2555C5.99973 27.3611 5.56773 25.0627 6.53947 25.176C6.84671 25.2118 7.12426 25.6126 7.53936 26.212C7.7425 26.5053 7.97858 26.8462 8.2672 27.2152C8.8688 27.9829 9.41973 28.6288 9.83706 28.7176C10.024 28.7579 10.1773 28.6739 10.3112 28.4195C10.3738 28.3004 10.4417 28.1543 10.5176 27.9906C10.7445 27.5016 11.0441 26.8561 11.4955 26.3083C11.9792 25.7491 12.5645 25.4864 12.9043 26.8541C13.0688 27.5368 13.1979 28.2363 13.2736 28.8496C13.2771 28.8779 13.2806 28.9059 13.2841 28.9335C13.3852 29.7455 13.4464 30.2362 13.7357 30.3765C14.0229 30.5168 14.5112 30.3363 15.3008 30.0416C15.864 29.8304 16.5907 29.5621 17.5093 29.2992C18.3541 29.0563 18.892 29.1835 18.3475 30.496C18.0912 31.116 17.8331 31.6379 16.9163 32.9552C16.7563 33.1888 16.7872 33.416 16.9875 33.6171C17.2933 33.92 17.9864 34.2875 18.7533 34.6224ZM67.571 10.0827V24.2784H71.8566V7.29896H67.1884C66.7787 7.29896 66.5617 7.65442 66.8886 8.06402C67.4068 8.63656 67.571 9.12749 67.571 10.0827ZM72.3206 32.6584V29.5734H57.5796C56.7329 29.5734 56.4601 29.3278 56.4601 28.4827V22.8864H51.8206C51.438 22.8864 51.2196 23.2678 51.5465 23.6774C51.9292 24.1414 52.1204 24.5512 52.1204 25.0966V29.0552C52.1204 31.8118 53.431 32.6584 56.7329 32.6584H72.3206ZM53.7849 8.52802C54.3046 9.10056 54.3588 9.59149 54.3588 10.4923V11.64C54.3588 15.1062 51.274 17.4803 47.6436 18.9008L48.8998 21.2747C49.2537 21.9587 51.3838 20.9208 53.0484 19.8286C54.4958 18.8736 55.7508 17.6715 56.7614 16.2254C57.6065 17.3718 58.89 18.464 60.2276 19.2819C62.5761 20.7294 63.9137 20.975 64.2675 20.3198L65.4425 18.1086C62.2761 17.0448 58.7814 14.9422 58.7814 11.3659V7.73576H54.059C53.6764 7.73576 53.458 8.11816 53.7849 8.52802ZM94.131 10.0835V24.6606H98.4166V16.8259H101.529V13.7408H98.4166V7.29816H93.7486C93.3387 7.29816 93.1203 7.65362 93.4758 8.06349C93.9939 8.69149 94.131 9.12829 94.131 10.0835ZM86.3235 15.9795C86.3235 17.7267 85.2316 19.1742 83.3486 19.1742C81.4371 19.1742 80.3721 17.7267 80.3721 15.9795C80.3721 14.1235 81.4371 12.7046 83.3486 12.7046C85.2316 12.7046 86.3235 14.1235 86.3235 15.9795ZM98.7451 32.6592V29.5742H84.2766C83.4299 29.5742 83.1574 29.3286 83.1574 28.4822V23.9782H78.5177C78.135 23.9782 77.9166 24.3592 78.2435 24.7688C78.6262 25.2328 78.8174 25.6427 78.8174 26.1894V29.0544C78.8174 31.8126 80.1265 32.6592 83.4299 32.6592H98.7451ZM80.782 7.29816C81.3014 7.92642 81.3558 8.36322 81.3558 9.31816V9.59229H74.7233V12.5947H77.5883C76.7702 13.5224 76.2777 14.696 76.2777 16.1163C76.2777 19.5555 78.8446 22.1766 83.3486 22.1766C87.8798 22.1766 90.4193 19.5555 90.4193 16.1163C90.4193 14.7246 89.8998 13.551 89.0531 12.5947H91.9198V9.59229H85.7227V6.53442H81.0558C80.6462 6.53442 80.4278 6.88856 80.782 7.29816ZM120.896 25.0675V29.8984H110.441C109.814 29.8984 109.567 29.68 109.567 29.1075V25.0675H120.896ZM104.79 23.019C105.173 23.483 105.364 23.8926 105.364 24.4379V29.9526C105.364 31.6456 106.456 32.792 108.366 32.792H125.1V22.8291C125.1 22.3651 124.909 22.228 124.472 22.228H105.063C104.682 22.228 104.463 22.6091 104.79 23.019ZM120.268 10.8174C120.732 10.8174 120.95 11.0086 120.923 11.3912L120.432 16.7675H102.279V19.7712H128.294V16.7675H124.608L125.128 11.3086C125.373 8.66029 124.691 7.84082 121.633 7.84082H105.556V10.8174H120.268ZM146.083 23.1832C145.02 23.0462 143.845 22.9648 142.59 22.9648C141.306 22.9648 140.133 23.0462 139.068 23.1832V21.2174H146.083V23.1832ZM142.59 9.64402C146.576 9.64402 148.376 10.3264 148.376 11.8555C148.376 13.3843 146.576 14.0654 142.59 14.0654C138.604 14.0654 136.802 13.3843 136.802 11.8555C136.802 10.3264 138.604 9.64402 142.59 9.64402ZM142.59 25.8856C146.521 25.8856 148.594 26.5408 148.594 28.1512C148.594 29.763 146.521 30.4168 142.59 30.4168C138.66 30.4168 136.586 29.763 136.586 28.1512C136.586 26.5408 138.66 25.8856 142.59 25.8856ZM142.59 16.9318C149.551 16.9318 152.58 14.8846 152.58 11.8555C152.58 8.82456 149.551 6.77736 142.59 6.77736C135.629 6.77736 132.598 8.82456 132.598 11.8555C132.598 14.8846 135.629 16.9318 142.59 16.9318ZM142.59 33.3376C149.033 33.3376 152.798 31.4547 152.798 28.1512C152.798 26.5408 151.871 25.2574 150.179 24.3566H150.26V21.2174H155.584V18.2694H129.569V21.2174H134.892V24.3566H134.974C133.281 25.2574 132.381 26.5408 132.381 28.1512C132.381 31.4547 136.147 33.3376 142.59 33.3376ZM174.512 11.7488C175.058 11.7488 175.248 11.9672 175.222 12.4856L174.512 27.4707H156.85V30.5843H182.864V27.4707H178.771L179.562 12.9496C179.697 9.53762 178.798 8.63682 175.058 8.63682H159.88V11.7488H174.512ZM202.89 29.9283H191.943C191.506 29.9283 191.288 29.7928 191.288 29.2744V28.3451H202.89V29.9283ZM202.616 10.0835V11.367H186.893C186.484 11.367 186.293 11.7211 186.62 12.1579C187.14 12.7859 187.329 13.2499 187.329 14.1507V15.624C187.329 17.263 187.903 17.9182 189.788 17.9182H207.148V15.2699H192.08C191.67 15.2699 191.506 15.1886 191.506 14.7518V13.9323H206.793V8.03656C206.793 7.57256 206.602 7.43549 206.165 7.43549H187.275V10.0835H202.616ZM186.511 24.1152C186.893 24.5792 187.084 24.9875 187.084 25.5342V29.9555C187.084 31.6486 188.176 32.795 190.086 32.795H207.093V23.323H202.89V25.56H191.288V23.323H186.784C186.403 23.323 186.183 23.7056 186.511 24.1152ZM210.15 22.1224V19.2286H184.136V22.1224H194.945V24.5507H199.368V22.1224H210.15Z" fill="#0046FF"/>
</svg>
