<?xml version="1.0" standalone="no"?>
<!DOCTYPE svg PUBLIC "-//W3C//DTD SVG 20010904//EN"
 "http://www.w3.org/TR/2001/REC-SVG-20010904/DTD/svg10.dtd">
<svg version="1.0" xmlns="http://www.w3.org/2000/svg"
 width="512.000000pt" height="512.000000pt" viewBox="0 0 512.000000 512.000000"
 preserveAspectRatio="xMidYMid meet">

<g transform="translate(0.000000,512.000000) scale(0.100000,-0.100000)"
fill="#000000" stroke="none">
<path d="M2335 4788 c-310 -31 -680 -156 -940 -318 -294 -183 -562 -451 -745
-745 -204 -328 -330 -773 -330 -1165 0 -392 126 -837 330 -1165 183 -294 451
-562 745 -745 328 -204 773 -330 1165 -330 392 0 837 126 1165 330 294 183
562 451 745 745 204 328 330 773 330 1165 0 392 -126 837 -330 1165 -183 294
-451 562 -745 745 -397 247 -917 366 -1390 318z m-243 -956 c84 -41 167 -128
199 -209 21 -53 24 -77 27 -268 4 -234 8 -249 66 -243 27 3 58 39 268 308 130
168 259 326 287 352 148 137 387 124 532 -29 78 -82 94 -126 94 -258 0 -105
-2 -114 -32 -175 -18 -36 -143 -209 -278 -385 -135 -176 -248 -330 -251 -342
-4 -13 -3 -33 0 -45 3 -13 118 -174 256 -358 166 -223 257 -353 271 -390 76
-196 -7 -425 -183 -506 -56 -26 -74 -29 -163 -29 -89 0 -106 3 -157 28 -31 15
-73 45 -95 65 -21 21 -146 181 -277 355 -226 298 -242 317 -271 317 -60 0 -63
-12 -67 -255 -3 -214 -4 -221 -30 -277 -37 -80 -107 -152 -187 -191 -59 -29
-74 -32 -151 -31 -137 1 -250 59 -323 166 -77 112 -72 30 -75 1113 -3 1018 -3
1034 41 1120 45 90 102 142 196 182 47 20 70 23 146 21 79 -3 99 -7 157 -36z"/>
</g>
</svg>
