<svg viewBox="0 0 400 340" fill="none" xmlns="http://www.w3.org/2000/svg" role="img" aria-hidden="true">
  <defs>
    <radialGradient id="kwgGlow" cx="50%" cy="44%" r="55%">
      <stop offset="0%" stop-color="#06c8da" stop-opacity="0.5"/>
      <stop offset="55%" stop-color="#1466d4" stop-opacity="0.12"/>
      <stop offset="100%" stop-color="#1466d4" stop-opacity="0"/>
    </radialGradient>
    <linearGradient id="kwgTop" x1="0" y1="0" x2="1" y2="1">
      <stop offset="0%" stop-color="#6fe6f0"/>
      <stop offset="100%" stop-color="#2071de"/>
    </linearGradient>
    <linearGradient id="kwgSide" x1="0" y1="0" x2="0" y2="1">
      <stop offset="0%" stop-color="#1c64d4"/>
      <stop offset="100%" stop-color="#0c3578"/>
    </linearGradient>
  </defs>

  <ellipse cx="200" cy="165" rx="175" ry="135" fill="url(#kwgGlow)"/>

  <!-- 점 격자 -->
  <g fill="#7ff0fa" fill-opacity="0.18">
    <circle cx="70" cy="90" r="2"/><circle cx="110" cy="70" r="2"/><circle cx="330" cy="100" r="2"/>
    <circle cx="300" cy="60" r="2"/><circle cx="90" cy="250" r="2"/><circle cx="330" cy="250" r="2"/>
    <circle cx="60" cy="180" r="2"/><circle cx="345" cy="180" r="2"/>
  </g>

  <!-- isometric 카드 3단 스택 -->
  <g stroke="#9ff4fc" stroke-opacity="0.35" stroke-width="1">
    <g transform="translate(0,52)">
      <polygon points="200,108 300,166 200,224 100,166" fill="url(#kwgTop)" fill-opacity="0.9"/>
      <polygon points="100,166 200,224 200,242 100,184" fill="url(#kwgSide)"/>
      <polygon points="300,166 200,224 200,242 300,184" fill="url(#kwgSide)" fill-opacity="0.78"/>
    </g>
    <g transform="translate(0,16)">
      <polygon points="200,108 300,166 200,224 100,166" fill="url(#kwgTop)" fill-opacity="0.95"/>
      <polygon points="100,166 200,224 200,242 100,184" fill="url(#kwgSide)"/>
      <polygon points="300,166 200,224 200,242 300,184" fill="url(#kwgSide)" fill-opacity="0.78"/>
    </g>
    <g transform="translate(0,-22)">
      <polygon points="200,108 300,166 200,224 100,166" fill="url(#kwgTop)"/>
      <polygon points="100,166 200,224 200,242 100,184" fill="url(#kwgSide)"/>
      <polygon points="300,166 200,224 200,242 300,184" fill="url(#kwgSide)" fill-opacity="0.78"/>
    </g>
  </g>

  <!-- 상단 반짝임 -->
  <g transform="translate(200,144)" fill="#ffffff">
    <path d="M0,-13 L3.2,-3.2 L13,0 L3.2,3.2 L0,13 L-3.2,3.2 L-13,0 L-3.2,-3.2 Z" fill-opacity="0.95"/>
  </g>
</svg>
