<svg id="Layer_1" data-name="Layer 1" xmlns="http://www.w3.org/2000/svg" viewBox="0 0 590.88 328.12">
  <defs>
    <style>
      .cls-1 {
        fill: #e0592a;
      }

      .cls-2 {
        fill: #00adbb;
      }

      .cls-3 {
        fill: #00829b;
      }
    </style>
  </defs>
  <title>OpenChain_Logo_Pantone</title>
  <g id="_Group_" data-name="&lt;Group&gt;">
    <g id="_Group_2" data-name="&lt;Group&gt;">
      <g id="_Group_3" data-name="&lt;Group&gt;">
        <path id="_Compound_Path_" data-name="&lt;Compound Path&gt;" class="cls-1" d="M5.07,420.1a35.78,35.78,0,0,1,2.87-14.19,37.41,37.41,0,0,1,7.84-11.74,37,37,0,0,1,11.63-7.94,36.11,36.11,0,0,1,28.45,0,37.47,37.47,0,0,1,19.68,19.68,36.08,36.08,0,0,1,0,28.44,37.13,37.13,0,0,1-19.68,19.47,35.65,35.65,0,0,1-14.2,2.87,35.54,35.54,0,0,1-14.25-2.87A36.7,36.7,0,0,1,7.94,434.35,35.68,35.68,0,0,1,5.07,420.1Zm8.51,0a28,28,0,0,0,2.2,11.12,28.33,28.33,0,0,0,6,9,29.09,29.09,0,0,0,9,6.1,27.73,27.73,0,0,0,21.93,0,29.09,29.09,0,0,0,9-6.1,28.87,28.87,0,0,0,6-31.26,29,29,0,0,0-6-9.07,28.55,28.55,0,0,0-9-6.15,27.84,27.84,0,0,0-21.93,0,28.55,28.55,0,0,0-9,6.15,29,29,0,0,0-6,9.07A28.08,28.08,0,0,0,13.58,420.1Z" transform="translate(-5.07 -131.03)"/>
        <path id="_Compound_Path_2" data-name="&lt;Compound Path&gt;" class="cls-1" d="M90.76,455.87V384.13h16.91a32.2,32.2,0,0,1,7.74,1.07,27.1,27.1,0,0,1,7.94,3.44,20.7,20.7,0,0,1,6.15,6A15.73,15.73,0,0,1,132,403.6q0,9.33-5.54,14.81t-16,5.48H99.26v32Zm8.5-40.17h8.92a20.15,20.15,0,0,0,7.43-1.18,13.69,13.69,0,0,0,4.66-2.93,9.73,9.73,0,0,0,2.46-3.89,12.89,12.89,0,0,0,.72-4.1,8.8,8.8,0,0,0-1.18-4.36,12.47,12.47,0,0,0-3.17-3.69,15.7,15.7,0,0,0-4.82-2.51,19.32,19.32,0,0,0-6-.92h-9Z" transform="translate(-5.07 -131.03)"/>
        <path id="_Compound_Path_3" data-name="&lt;Compound Path&gt;" class="cls-1" d="M142,455.87V384.13h44.18v8.09H150.51V415.7h31.67v8.09H150.51v24h37.1v8.09Z" transform="translate(-5.07 -131.03)"/>
        <path id="_Compound_Path_4" data-name="&lt;Compound Path&gt;" class="cls-1" d="M269.41,384.13v75q-13.23-14-26.24-27.88L216.93,403.4c-.35-.48-.67-.93-1-1.34s-.63-.85-1-1.33c.07.55.12,1.09.15,1.64s.09,1.09.16,1.64v51.86h-8.51v-75L233,409.29q13,14.08,26.24,28.44c.34.48.66.92,1,1.33s.63.86,1,1.34c-.07-.55-.12-1.1-.16-1.64s-.08-1.1-.15-1.64v-53Z" transform="translate(-5.07 -131.03)"/>
        <path id="_Compound_Path_5" data-name="&lt;Compound Path&gt;" class="cls-2" d="M338,446.44l3.49,5.13a40.92,40.92,0,0,1-8.77,3.74,34.66,34.66,0,0,1-9.89,1.38,35.49,35.49,0,0,1-14.24-2.87,36.68,36.68,0,0,1-19.48-19.47,35.68,35.68,0,0,1-2.87-14.25,36.09,36.09,0,0,1,2.87-14.3,37,37,0,0,1,7.84-11.68,37.73,37.73,0,0,1,11.64-7.89,35,35,0,0,1,14.24-2.92,35.75,35.75,0,0,1,9.89,1.33,38.37,38.37,0,0,1,8.87,3.79q-.82,1.33-1.74,2.61c-.62.86-1.23,1.73-1.85,2.62a28.5,28.5,0,0,0-15.17-4.2,28.93,28.93,0,0,0-11.73,2.4,30.1,30.1,0,0,0-9.58,6.62,31.81,31.81,0,0,0-6.51,9.78,29.57,29.57,0,0,0-2.41,11.84A29.87,29.87,0,0,0,294.93,432a30.51,30.51,0,0,0,16,16.25,29.92,29.92,0,0,0,19.73,1.33A31,31,0,0,0,338,446.44Z" transform="translate(-5.07 -131.03)"/>
        <path id="_Compound_Path_6" data-name="&lt;Compound Path&gt;" class="cls-2" d="M357.34,455.87V384.13h6.36v32.59h41.41V384.13h6.45q0,18-.05,35.87t-.05,35.87h-6.35v-33.1H363.7v33.1Z" transform="translate(-5.07 -131.03)"/>
        <path id="_Compound_Path_7" data-name="&lt;Compound Path&gt;" class="cls-2" d="M490.08,455.87h-6.46q-3.18-7.38-6.25-14.81t-6.26-14.81H445.39q-3.08,7.38-6.2,14.81t-6.31,14.81h-6.35q8-18.86,15.89-37.51t15.88-37.51q8,18.86,15.89,37.51T490.08,455.87Zm-30.86-57.7c-.13-.55-.29-1.08-.46-1.59s-.32-1-.46-1.59a126,126,0,0,1-4.81,12.71q-2.78,6.26-5.44,12.51h20.4q-2.35-5.55-4.61-11C462.33,405.53,460.8,401.86,459.22,398.17Z" transform="translate(-5.07 -131.03)"/>
        <path id="_Compound_Path_8" data-name="&lt;Compound Path&gt;" class="cls-2" d="M506.47,384.13h6.46v71.74h-6.46Z" transform="translate(-5.07 -131.03)"/>
        <path id="_Compound_Path_9" data-name="&lt;Compound Path&gt;" class="cls-2" d="M596,384.13v75q-13.74-15.27-27.31-30.28t-27.32-30.29c-.34-.48-.66-.92-1-1.33s-.64-.86-1-1.34c.07.55.12,1.1.16,1.64s.08,1.1.15,1.64v56.68h-6.35v-75q13.73,15.48,27.31,30.74L588,442.34c.34.48.66.93,1,1.34s.63.85,1,1.33c-.07-.55-.12-1.09-.15-1.64s-.09-1.09-.15-1.64v-57.6Z" transform="translate(-5.07 -131.03)"/>
      </g>
    </g>
  </g>
  <g id="_Group_4" data-name="&lt;Group&gt;">
    <g id="_Group_5" data-name="&lt;Group&gt;">
      <g id="_Group_6" data-name="&lt;Group&gt;">
        <path id="_Path_" data-name="&lt;Path&gt;" class="cls-1" d="M247.11,288.71a2.56,2.56,0,0,1-1.7-4.49,84.37,84.37,0,0,0,17.32-105.45,2.57,2.57,0,0,1,4.44-2.57A89.46,89.46,0,0,1,248.8,288.07,2.53,2.53,0,0,1,247.11,288.71Z" transform="translate(-5.07 -131.03)"/>
      </g>
      <g id="_Group_7" data-name="&lt;Group&gt;">
        <path id="_Path_2" data-name="&lt;Path&gt;" class="cls-1" d="M189.7,310.38a89.45,89.45,0,1,1,29.14-174,2.57,2.57,0,0,1-1.67,4.86A84.32,84.32,0,1,0,189.7,305.25a2.57,2.57,0,1,1,0,5.13Z" transform="translate(-5.07 -131.03)"/>
      </g>
    </g>
    <g id="_Group_8" data-name="&lt;Group&gt;">
      <g id="_Group_9" data-name="&lt;Group&gt;">
        <path id="_Path_3" data-name="&lt;Path&gt;" class="cls-2" d="M415.42,310.38A89.71,89.71,0,0,1,327.79,239a2.57,2.57,0,1,1,5-1,84.56,84.56,0,0,0,82.6,67.32,2.57,2.57,0,0,1,0,5.13Z" transform="translate(-5.07 -131.03)"/>
      </g>
      <g id="_Group_10" data-name="&lt;Group&gt;">
        <path id="_Path_4" data-name="&lt;Path&gt;" class="cls-2" d="M472.88,288.66a2.54,2.54,0,0,1-1.92-.87,2.56,2.56,0,0,1,.22-3.62,84.31,84.31,0,1,0-128.79-105.4,2.57,2.57,0,0,1-4.45-2.57A89.46,89.46,0,1,1,474.58,288,2.56,2.56,0,0,1,472.88,288.66Z" transform="translate(-5.07 -131.03)"/>
      </g>
    </g>
    <g id="_Group_11" data-name="&lt;Group&gt;">
      <g id="_Group_12" data-name="&lt;Group&gt;">
        <path id="_Path_5" data-name="&lt;Path&gt;" class="cls-3" d="M373.78,169l0,0a2,2,0,0,0-.36,2.69,84.92,84.92,0,0,1-.89,97.68,2,2,0,0,0,.32,2.69l0,0a2,2,0,0,0,2.93-.35,89,89,0,0,0,.93-102.37A2,2,0,0,0,373.78,169Z" transform="translate(-5.07 -131.03)"/>
      </g>
      <g id="_Group_13" data-name="&lt;Group&gt;">
        <path id="_Path_6" data-name="&lt;Path&gt;" class="cls-3" d="M340.83,297.72a2,2,0,0,0-2.21-.38,85,85,0,0,1-71.58-.4,2,2,0,0,0-2.25.38l0,0a2,2,0,0,0,.52,3.23,88.92,88.92,0,0,0,75.06.42,2,2,0,0,0,.52-3.25Z" transform="translate(-5.07 -131.03)"/>
      </g>
    </g>
    <g id="_Group_14" data-name="&lt;Group&gt;">
      <path id="_Path_7" data-name="&lt;Path&gt;" class="cls-3" d="M234.55,272.82a2.58,2.58,0,0,1-2-.95c-.42-.52-41.66-52.63-1.86-104.89,44.58-58.54,111.2-28,111.87-27.73a2.57,2.57,0,1,1-2.19,4.64c-2.57-1.21-63.56-29-105.6,26.21-37.38,49.08,1.37,98,1.77,98.54a2.57,2.57,0,0,1-.38,3.61A2.6,2.6,0,0,1,234.55,272.82Z" transform="translate(-5.07 -131.03)"/>
    </g>
  </g>
</svg>
